<svg id="Layer_1" data-name="Layer 1" xmlns="http://www.w3.org/2000/svg" xmlns:xlink="http://www.w3.org/1999/xlink" viewBox="0 0 133.4 108.66"><defs><style>.cls-1{fill:url(#linear-gradient);}.cls-2{fill:url(#linear-gradient-2);}.cls-3{fill:url(#linear-gradient-3);}.cls-4{fill:url(#linear-gradient-4);}.cls-5{fill:url(#linear-gradient-5);}.cls-6{fill:url(#linear-gradient-6);}.cls-7{fill:url(#linear-gradient-7);}.cls-8{fill:url(#linear-gradient-8);}.cls-9{fill:url(#linear-gradient-9);}.cls-10{fill:url(#linear-gradient-10);}.cls-11{fill:url(#linear-gradient-11);}.cls-12{fill:url(#linear-gradient-12);}.cls-13{fill:url(#linear-gradient-13);}.cls-14{fill:url(#linear-gradient-14);}.cls-15{fill:url(#linear-gradient-15);}.cls-16{fill:url(#linear-gradient-16);}.cls-17{fill:url(#linear-gradient-17);}.cls-18{fill:url(#linear-gradient-18);}.cls-19{fill:url(#linear-gradient-19);}.cls-20{fill:url(#linear-gradient-20);}.cls-21{fill:url(#linear-gradient-21);}.cls-22{fill:url(#linear-gradient-22);}.cls-23{fill:url(#linear-gradient-23);}.cls-24{fill:url(#linear-gradient-24);}.cls-25{fill:url(#linear-gradient-25);}.cls-26{fill:url(#linear-gradient-26);}.cls-27{fill:url(#linear-gradient-27);}.cls-28{fill:url(#linear-gradient-28);}.cls-29{fill:url(#linear-gradient-29);}.cls-30{fill:url(#linear-gradient-30);}.cls-31{fill:url(#linear-gradient-31);}.cls-32{fill:url(#linear-gradient-32);}.cls-33{fill:url(#linear-gradient-33);}.cls-34{fill:url(#linear-gradient-34);}.cls-35{fill:url(#linear-gradient-35);}.cls-36{fill:url(#linear-gradient-36);}.cls-37{fill:url(#linear-gradient-37);}.cls-38{fill:url(#linear-gradient-38);}.cls-39{fill:url(#linear-gradient-39);}.cls-40{fill:url(#linear-gradient-40);}.cls-41{fill:url(#linear-gradient-41);}.cls-42{fill:url(#linear-gradient-42);}.cls-43{fill:url(#linear-gradient-43);}.cls-44{fill:url(#linear-gradient-44);}.cls-45{fill:url(#linear-gradient-45);}.cls-46{fill:url(#linear-gradient-46);}.cls-47{fill:url(#linear-gradient-47);}.cls-48{fill:url(#linear-gradient-48);}.cls-49{fill:url(#linear-gradient-49);}.cls-50{fill:url(#linear-gradient-50);}.cls-51{fill:url(#linear-gradient-51);}.cls-52{fill:url(#linear-gradient-52);}.cls-53{fill:url(#linear-gradient-53);}.cls-54{fill:url(#linear-gradient-54);}.cls-55{fill:url(#linear-gradient-55);}.cls-56{fill:url(#linear-gradient-56);}.cls-57{fill:url(#linear-gradient-57);}.cls-58{fill:url(#linear-gradient-58);}.cls-59{fill:url(#linear-gradient-59);}.cls-60{fill:url(#linear-gradient-60);}.cls-61,.cls-64{fill:#bc2924;}.cls-62{fill:url(#linear-gradient-61);}.cls-63,.cls-64{isolation:isolate;}.cls-63{font-size:10.75px;font-family:ArialMT, Arial;}.cls-64{font-size:6.73px;font-family:Poppins-SemiBold, Poppins;font-weight:600;}</style><linearGradient id="linear-gradient" x1="0.05" y1="678.65" x2="42.51" y2="678.65" gradientTransform="matrix(1, 0, 0, -1, 0, 740.15)" gradientUnits="userSpaceOnUse"><stop offset="0" stop-color="#da8800"/><stop offset="0.18" stop-color="#ffd30b"/><stop offset="0.28" stop-color="#f8c90e"/><stop offset="0.46" stop-color="#e7ad15"/><stop offset="0.49" stop-color="#e3a617"/><stop offset="0.71" stop-color="#fbcd0d"/><stop offset="0.74" stop-color="#ffd30b"/><stop offset="0.78" stop-color="#f7c90a"/><stop offset="0.85" stop-color="#e1ac07"/><stop offset="0.95" stop-color="#bd7f03"/><stop offset="1" stop-color="#a66200"/></linearGradient><linearGradient id="linear-gradient-2" x1="0.05" y1="683.6" x2="42.51" y2="683.6" xlink:href="#linear-gradient"/><linearGradient id="linear-gradient-3" x1="0.05" y1="688.55" x2="42.51" y2="688.55" xlink:href="#linear-gradient"/><linearGradient id="linear-gradient-4" x1="0.05" y1="675.1" x2="42.51" y2="675.1" xlink:href="#linear-gradient"/><linearGradient id="linear-gradient-5" x1="0.05" y1="715.82" x2="42.51" y2="715.82" xlink:href="#linear-gradient"/><linearGradient id="linear-gradient-6" x1="0.05" y1="671" x2="42.51" y2="671" xlink:href="#linear-gradient"/><linearGradient id="linear-gradient-7" x1="0.05" y1="723" x2="42.51" y2="723" xlink:href="#linear-gradient"/><linearGradient id="linear-gradient-8" x1="0.05" y1="667.65" x2="42.51" y2="667.65" xlink:href="#linear-gradient"/><linearGradient id="linear-gradient-9" x1="0.05" y1="662.35" x2="42.51" y2="662.35" xlink:href="#linear-gradient"/><linearGradient id="linear-gradient-10" x1="0.05" y1="659.85" x2="42.51" y2="659.85" xlink:href="#linear-gradient"/><linearGradient id="linear-gradient-11" x1="0.05" y1="664.85" x2="42.51" y2="664.85" xlink:href="#linear-gradient"/><linearGradient id="linear-gradient-12" x1="0.05" y1="693.75" x2="42.51" y2="693.75" xlink:href="#linear-gradient"/><linearGradient id="linear-gradient-13" x1="0.05" y1="699.45" x2="42.51" y2="699.45" xlink:href="#linear-gradient"/><linearGradient id="linear-gradient-14" x1="0.05" y1="709.88" x2="42.51" y2="709.88" xlink:href="#linear-gradient"/><linearGradient id="linear-gradient-15" x1="0.05" y1="704.78" x2="42.51" y2="704.78" xlink:href="#linear-gradient"/><linearGradient id="linear-gradient-16" x1="0.05" y1="671.61" x2="42.51" y2="671.61" xlink:href="#linear-gradient"/><linearGradient id="linear-gradient-17" x1="0.05" y1="662.35" x2="42.51" y2="662.35" xlink:href="#linear-gradient"/><linearGradient id="linear-gradient-18" x1="0.05" y1="658.34" x2="42.51" y2="658.34" xlink:href="#linear-gradient"/><linearGradient id="linear-gradient-19" x1="0.05" y1="666.63" x2="42.51" y2="666.63" xlink:href="#linear-gradient"/><linearGradient id="linear-gradient-20" x1="0.05" y1="676.75" x2="42.51" y2="676.75" xlink:href="#linear-gradient"/><linearGradient id="linear-gradient-21" x1="0.05" y1="654.9" x2="42.51" y2="654.9" xlink:href="#linear-gradient"/><linearGradient id="linear-gradient-22" x1="0.05" y1="684.75" x2="42.51" y2="684.75" xlink:href="#linear-gradient"/><linearGradient id="linear-gradient-23" x1="0.05" y1="719.3" x2="42.51" y2="719.3" xlink:href="#linear-gradient"/><linearGradient id="linear-gradient-24" x1="0.05" y1="652.12" x2="42.51" y2="652.12" xlink:href="#linear-gradient"/><linearGradient id="linear-gradient-25" x1="0.05" y1="682.45" x2="42.51" y2="682.45" xlink:href="#linear-gradient"/><linearGradient id="linear-gradient-26" x1="0.05" y1="707.95" x2="42.51" y2="707.95" xlink:href="#linear-gradient"/><linearGradient id="linear-gradient-27" x1="0.05" y1="713.45" x2="42.51" y2="713.45" xlink:href="#linear-gradient"/><linearGradient id="linear-gradient-28" x1="0.05" y1="701.7" x2="42.51" y2="701.7" xlink:href="#linear-gradient"/><linearGradient id="linear-gradient-29" x1="0.06" y1="688.6" x2="42.51" y2="688.6" xlink:href="#linear-gradient"/><linearGradient id="linear-gradient-30" x1="0.05" y1="695.05" x2="42.51" y2="695.05" xlink:href="#linear-gradient"/><linearGradient id="linear-gradient-31" x1="90.97" y1="675" x2="133.43" y2="675" xlink:href="#linear-gradient"/><linearGradient id="linear-gradient-32" x1="90.97" y1="678.65" x2="133.43" y2="678.65" xlink:href="#linear-gradient"/><linearGradient id="linear-gradient-33" x1="90.97" y1="693.75" x2="133.43" y2="693.75" xlink:href="#linear-gradient"/><linearGradient id="linear-gradient-34" x1="90.97" y1="667.65" x2="133.43" y2="667.65" xlink:href="#linear-gradient"/><linearGradient id="linear-gradient-35" x1="90.97" y1="688.55" x2="133.43" y2="688.55" xlink:href="#linear-gradient"/><linearGradient id="linear-gradient-36" x1="90.97" y1="683.6" x2="133.43" y2="683.6" xlink:href="#linear-gradient"/><linearGradient id="linear-gradient-37" x1="90.97" y1="707.95" x2="133.43" y2="707.95" xlink:href="#linear-gradient"/><linearGradient id="linear-gradient-38" x1="90.97" y1="695.05" x2="133.43" y2="695.05" xlink:href="#linear-gradient"/><linearGradient id="linear-gradient-39" x1="90.97" y1="723" x2="133.43" y2="723" xlink:href="#linear-gradient"/><linearGradient id="linear-gradient-40" x1="90.97" y1="701.7" x2="133.43" y2="701.7" xlink:href="#linear-gradient"/><linearGradient id="linear-gradient-41" x1="90.97" y1="688.6" x2="133.43" y2="688.6" xlink:href="#linear-gradient"/><linearGradient id="linear-gradient-42" x1="90.97" y1="719.3" x2="133.43" y2="719.3" xlink:href="#linear-gradient"/><linearGradient id="linear-gradient-43" x1="90.97" y1="699.4" x2="133.43" y2="699.4" xlink:href="#linear-gradient"/><linearGradient id="linear-gradient-44" x1="90.97" y1="713.45" x2="133.43" y2="713.45" xlink:href="#linear-gradient"/><linearGradient id="linear-gradient-45" x1="90.97" y1="671" x2="133.43" y2="671" xlink:href="#linear-gradient"/><linearGradient id="linear-gradient-46" x1="90.97" y1="704.77" x2="133.43" y2="704.77" xlink:href="#linear-gradient"/><linearGradient id="linear-gradient-47" x1="90.97" y1="658.34" x2="133.43" y2="658.34" xlink:href="#linear-gradient"/><linearGradient id="linear-gradient-48" x1="90.97" y1="654.84" x2="133.43" y2="654.84" xlink:href="#linear-gradient"/><linearGradient id="linear-gradient-49" x1="90.97" y1="666.65" x2="133.43" y2="666.65" xlink:href="#linear-gradient"/><linearGradient id="linear-gradient-50" x1="90.97" y1="682.45" x2="133.43" y2="682.45" xlink:href="#linear-gradient"/><linearGradient id="linear-gradient-51" x1="90.97" y1="676.75" x2="133.43" y2="676.75" xlink:href="#linear-gradient"/><linearGradient id="linear-gradient-52" x1="90.97" y1="671.62" x2="133.43" y2="671.62" xlink:href="#linear-gradient"/><linearGradient id="linear-gradient-53" x1="90.97" y1="662.38" x2="133.43" y2="662.38" xlink:href="#linear-gradient"/><linearGradient id="linear-gradient-54" x1="90.97" y1="715.82" x2="133.43" y2="715.82" xlink:href="#linear-gradient"/><linearGradient id="linear-gradient-55" x1="90.97" y1="709.88" x2="133.43" y2="709.88" xlink:href="#linear-gradient"/><linearGradient id="linear-gradient-56" x1="90.97" y1="664.85" x2="133.43" y2="664.85" xlink:href="#linear-gradient"/><linearGradient id="linear-gradient-57" x1="90.97" y1="684.7" x2="133.43" y2="684.7" xlink:href="#linear-gradient"/><linearGradient id="linear-gradient-58" x1="90.97" y1="652.09" x2="133.43" y2="652.09" xlink:href="#linear-gradient"/><linearGradient id="linear-gradient-59" x1="90.97" y1="662.35" x2="133.43" y2="662.35" xlink:href="#linear-gradient"/><linearGradient id="linear-gradient-60" x1="90.97" y1="659.85" x2="133.43" y2="659.85" xlink:href="#linear-gradient"/><linearGradient id="linear-gradient-61" x1="30.8" y1="38.55" x2="101.83" y2="38.55" gradientTransform="matrix(1, 0, 0, -1, 0, 108.11)" xlink:href="#linear-gradient"/></defs><path class="cls-1" d="M13.62,57.3a8.64,8.64,0,0,0-3.5,8.4C16.12,61.6,13.62,57.3,13.62,57.3Z"/><path class="cls-2" d="M13.12,52.6a8.85,8.85,0,0,0-4.4,7.9C15,57.2,13.12,52.6,13.12,52.6Z"/><path class="cls-3" d="M12.42,47.8a8.53,8.53,0,0,0-4.8,7.6C14.22,52.5,12.42,47.8,12.42,47.8Z"/><path class="cls-4" d="M15.32,60.8a8.58,8.58,0,0,0-2.9,8.5C18.12,65,15.32,60.8,15.32,60.8Z"/><path class="cls-5" d="M13.92,26.4c7.2.8,8-4.2,8-4.2A8.74,8.74,0,0,0,13.92,26.4Z"/><path class="cls-6" d="M16.82,64.7a8.52,8.52,0,0,0-1.4,8.9C20.32,68.3,16.82,64.7,16.82,64.7Z"/><path class="cls-7" d="M22.42,13.7s-5-.3-5.9,6.9A8.85,8.85,0,0,0,22.42,13.7Z"/><path class="cls-8" d="M19.52,68a8.87,8.87,0,0,0-1.1,9C23.22,71.5,19.52,68,19.52,68Z"/><path class="cls-9" d="M25.92,73.3a8.8,8.8,0,0,0-.2,9C29.82,76.5,25.92,73.3,25.92,73.3Z"/><path class="cls-10" d="M29,75.8a8.41,8.41,0,0,0,.8,9C33.32,78.5,29,75.8,29,75.8Z"/><path class="cls-11" d="M22.22,79.8c4.3-5.8.5-9,.5-9A8.37,8.37,0,0,0,22.22,79.8Z"/><path class="cls-12" d="M12.62,42.8A9,9,0,0,0,7.12,50C13.92,47.7,12.62,42.8,12.62,42.8Z"/><path class="cls-13" d="M14.72,37.7a8.57,8.57,0,0,0-6.7,6C15.12,42.7,14.72,37.7,14.72,37.7Z"/><path class="cls-14" d="M19.12,28a8.83,8.83,0,0,0-7.9,4.5C18.52,33,19.12,28,19.12,28Z"/><path class="cls-15" d="M9.42,37.5c7.2.7,8-4.3,8-4.3A8.54,8.54,0,0,0,9.42,37.5Z"/><path class="cls-16" d="M9.92,70.6a8.74,8.74,0,0,0-8-4.2C1.92,66.5,2.72,71.4,9.92,70.6Z"/><path class="cls-17" d="M16.22,78.5a8.78,8.78,0,0,0-8.9-1.8S9.52,81.3,16.22,78.5Z"/><path class="cls-18" d="M20,82.1a8.65,8.65,0,0,0-9-1S13.62,85.4,20,82.1Z"/><path class="cls-19" d="M12.92,74.9a8.85,8.85,0,0,0-8.5-3C4.32,71.9,5.92,76.7,12.92,74.9Z"/><path class="cls-20" d="M7.72,66.2a8.78,8.78,0,0,0-7.1-5.6S.62,65.6,7.72,66.2Z"/><path class="cls-21" d="M14.42,85.1s3.2,3.9,9-.3A9.05,9.05,0,0,0,14.42,85.1Z"/><path class="cls-22" d="M36,88q-3.15-1.05-6.3-2.4C-11.48,63,14.52,23.6,16,21.4c-1,1.4-12.9,18.5-9.7,37,3.3,19.3,22.5,28.4,22.5,28.4a62.08,62.08,0,0,0,5.9,2.6A8.64,8.64,0,0,1,36,88Z"/><path class="cls-23" d="M13.92,16.4s-4.5,2.3-1.7,8.9C12.32,25.3,15.72,21.9,13.92,16.4Z"/><path class="cls-24" d="M19.22,88.5s3.6,3.4,8.9-1.4A8.32,8.32,0,0,0,19.22,88.5Z"/><path class="cls-25" d="M5.92,61.2a8.87,8.87,0,0,0-5.8-7C.12,54.3-1,59.2,5.92,61.2Z"/><path class="cls-26" d="M6.32,27.7s-3.7,3.4.8,9A8.81,8.81,0,0,0,6.32,27.7Z"/><path class="cls-27" d="M10,22.2s-4.3,2.7-.9,9A8.63,8.63,0,0,0,10,22.2Z"/><path class="cls-28" d="M3.72,34s-3.4,3.7,1.7,8.9A8.54,8.54,0,0,0,3.72,34Z"/><path class="cls-29" d="M4.72,55.5a8.85,8.85,0,0,0-4.4-7.9S-1.68,52.2,4.72,55.5Z"/><path class="cls-30" d="M4.62,49.4A8.72,8.72,0,0,0,2,40.8S-.88,44.9,4.62,49.4Z"/><path class="cls-31" d="M121,69.4a8.58,8.58,0,0,0-2.9-8.5C118.12,60.8,115.32,65,121,69.4Z"/><path class="cls-32" d="M123.22,65.7a8.86,8.86,0,0,0-3.4-8.4S117.22,61.6,123.22,65.7Z"/><path class="cls-33" d="M120.82,42.8s-1.3,4.8,5.5,7.2A8.35,8.35,0,0,0,120.82,42.8Z"/><path class="cls-34" d="M114.92,77a8.87,8.87,0,0,0-1.1-9S110.22,71.5,114.92,77Z"/><path class="cls-35" d="M120.92,47.8s-1.8,4.7,4.8,7.6A8.42,8.42,0,0,0,120.92,47.8Z"/><path class="cls-36" d="M120.32,52.6s-2,4.6,4.4,7.9C124.82,60.5,125.32,55.6,120.32,52.6Z"/><path class="cls-37" d="M126.42,36.7c4.5-5.6.8-9,.8-9A8.61,8.61,0,0,0,126.42,36.7Z"/><path class="cls-38" d="M128.82,49.4c5.6-4.6,2.7-8.6,2.6-8.6A8.59,8.59,0,0,0,128.82,49.4Z"/><path class="cls-39" d="M116.82,20.6c-.8-7.2-5.8-6.9-5.8-6.9A8.73,8.73,0,0,0,116.82,20.6Z"/><path class="cls-40" d="M128,42.9c5.1-5.2,1.7-8.9,1.7-8.9A8.54,8.54,0,0,0,128,42.9Z"/><path class="cls-41" d="M128.62,55.5c6.4-3.2,4.4-7.9,4.4-7.9A8.74,8.74,0,0,0,128.62,55.5Z"/><path class="cls-42" d="M121.12,25.3c2.8-6.6-1.7-8.9-1.7-8.9A9.06,9.06,0,0,0,121.12,25.3Z"/><path class="cls-43" d="M118.72,37.7s-.4,5,6.7,6.1C125.52,43.7,124.42,39,118.72,37.7Z"/><path class="cls-44" d="M123.42,22.2a8.63,8.63,0,0,0,.9,9C127.72,24.9,123.42,22.2,123.42,22.2Z"/><path class="cls-45" d="M116.52,64.7s-3.5,3.6,1.4,8.9A8.49,8.49,0,0,0,116.52,64.7Z"/><path class="cls-46" d="M116,33.2s.8,5,8,4.3A8.72,8.72,0,0,0,116,33.2Z"/><path class="cls-47" d="M113.42,82.1c6.4,3.3,9-1,9-1A8.65,8.65,0,0,0,113.42,82.1Z"/><path class="cls-48" d="M110,84.9c5.9,4.2,9,.3,9,.3A8.58,8.58,0,0,0,110,84.9Z"/><path class="cls-49" d="M120.52,74.9c7,1.8,8.5-3,8.5-3A8.44,8.44,0,0,0,120.52,74.9Z"/><path class="cls-50" d="M127.52,61.2c6.9-2,5.8-7,5.8-7A9,9,0,0,0,127.52,61.2Z"/><path class="cls-51" d="M125.62,66.2c7.2-.5,7.1-5.6,7.1-5.6A8.74,8.74,0,0,0,125.62,66.2Z"/><path class="cls-52" d="M123.52,70.6c7.1.8,8-4.2,8-4.2A8.74,8.74,0,0,0,123.52,70.6Z"/><path class="cls-53" d="M117.22,78.5c6.7,2.7,8.9-1.8,8.9-1.8A8.78,8.78,0,0,0,117.22,78.5Z"/><path class="cls-54" d="M111.52,22.2s.8,5,8,4.2A8.64,8.64,0,0,0,111.52,22.2Z"/><path class="cls-55" d="M114.22,28s.7,5,7.9,4.5A8.83,8.83,0,0,0,114.22,28Z"/><path class="cls-56" d="M110.82,70.8s-3.8,3.2.5,9A9.3,9.3,0,0,0,110.82,70.8Z"/><path class="cls-57" d="M127.12,58.4c3.2-18.5-8.7-35.6-9.7-37,1.4,2.2,27.4,41.6-13.7,64.2h0a56,56,0,0,1-6.8,2.6l1.3,1.3c2.2-.8,4.3-1.7,6.4-2.7C104.62,86.8,123.82,77.7,127.12,58.4Z"/><path class="cls-58" d="M105.32,87.1c5.2,4.9,8.9,1.4,8.9,1.4A8.49,8.49,0,0,0,105.32,87.1Z"/><path class="cls-59" d="M107.52,73.3s-3.9,3.2.2,9A8.37,8.37,0,0,0,107.52,73.3Z"/><path class="cls-60" d="M104.42,75.8s-4.3,2.7-.8,9A8.85,8.85,0,0,0,104.42,75.8Z"/><path class="cls-61" d="M54.72,17.1a13.79,13.79,0,0,0-3.3-9.3c-2.2-2.5-4.5-3.7-7.1-3.7a12.79,12.79,0,0,0-10.4,5H33V7.2a23.77,23.77,0,0,1,4.4-4,11.56,11.56,0,0,1,7-2.1A15.83,15.83,0,0,1,56,5.7,15.1,15.1,0,0,1,60.72,17c0,6.6-7.9,18.2-23.8,34.8h16a9.09,9.09,0,0,0,7.9-4.3h2l-3.7,8.9H31.62V54.5Q54.72,28.85,54.72,17.1Z"/><path class="cls-61" d="M74.42,24.1,80,2H95c2.6,0,4-.7,4.3-2h1.9l-2.4,6.5H82.42l-4,15.8A23.48,23.48,0,0,1,93.12,27c4.1,3.1,6.1,7,6.1,11.4,0,5.9-1.8,10.6-5.5,13.9a17.66,17.66,0,0,1-12.3,5A25.06,25.06,0,0,1,72,55.8c-2.3-.9-3.5-2-3.5-3.1v-4h1.7a5.6,5.6,0,0,0,3.3,5.1,16.68,16.68,0,0,0,8.2,1.8c3.8,0,6.6-1.5,8.3-4.4s2.5-7.4,2.5-13.2a13.3,13.3,0,0,0-4.2-10.1,14.92,14.92,0,0,0-10.8-4.1C76.72,23.9,75.62,23.9,74.42,24.1Z"/><path class="cls-62" d="M39.22,70.3l2.9-4.8a3.63,3.63,0,0,0,.7-1.7,1.14,1.14,0,0,0-.3-.8,1.44,1.44,0,0,0-1.4-.3v-.5h4.8v.5a3,3,0,0,0-1.6.8,10.71,10.71,0,0,0-1.5,2.2l-3.3,5.4V73a19.27,19.27,0,0,0,.1,2.4.84.84,0,0,0,.4.7,2.62,2.62,0,0,0,1.5.2v.5h-6.2v-.5h.2a2,2,0,0,0,1.3-.2,1.37,1.37,0,0,0,.5-.8,17.7,17.7,0,0,0,.1-2.3V71.1l-3.7-6a10.71,10.71,0,0,0-1.5-2.2,2.66,2.66,0,0,0-1.2-.3v-.5h6v.5c-1.2,0-1.6.2-1.6.8a2.38,2.38,0,0,0,.6,1.1Zm19.3,1.9H59l-.3,4.6H46.62v-.5h.3a2.23,2.23,0,0,0,1.4-.3,2.18,2.18,0,0,0,.5-.8,17.7,17.7,0,0,0,.1-2.3V65.8a16.2,16.2,0,0,0-.1-2.2,1,1,0,0,0-.5-.8,2.2,2.2,0,0,0-1.4-.2v-.5h10.5l.3,3.7h-.5a6,6,0,0,0-.9-2.2,2,2,0,0,0-1.2-.8,5.45,5.45,0,0,0-2.2-.1h-2v6.1h1.5a3.89,3.89,0,0,0,1.5-.2,1.7,1.7,0,0,0,.6-.6,2.57,2.57,0,0,0,.1-1.5h.5v4.9h-.5a4.4,4.4,0,0,0-.2-1.6,1.7,1.7,0,0,0-.6-.6,7.08,7.08,0,0,0-1.4-.1h-1.6v3.4a7.62,7.62,0,0,0,.3,3,2.71,2.71,0,0,0,1.8.5h1a5.23,5.23,0,0,0,1.8-.3,4.07,4.07,0,0,0,1.4-1.2A3.34,3.34,0,0,0,58.52,72.2Zm10.7-.8h-5.5l-.3.9a7.73,7.73,0,0,0-.8,2.7,1.23,1.23,0,0,0,.5,1,2,2,0,0,0,1.1.3v.5h-4.4v-.5a2.63,2.63,0,0,0,1.5-.7,10.08,10.08,0,0,0,1.2-2.3l.5-1.2L67.32,62h.4l4.7,11.6.7,1.5a1.56,1.56,0,0,0,.6.8,2.13,2.13,0,0,0,1.2.3v.5h-5.8v-.5a6.6,6.6,0,0,0,1.4-.1c.2-.1.5-.3.3-.6a3.36,3.36,0,0,0-.5-1.4Zm-.2-.5-2.6-6.2-2.5,6.2Zm21.7,5.9h-3.9a19.54,19.54,0,0,1-3.2-3.8c-.5-.7-.9-1.3-1.4-1.9a10.59,10.59,0,0,0-1-1.2,2.92,2.92,0,0,0-.9-.2h-.6v3.2a17.7,17.7,0,0,0,.1,2.3,1,1,0,0,0,.5.8,2.2,2.2,0,0,0,1.4.2h.7v.5h-7v-.5h.5a2.54,2.54,0,0,0,1.2-.2,1.37,1.37,0,0,0,.5-.8,17.7,17.7,0,0,0,.1-2.3V65.8a17.7,17.7,0,0,0-.1-2.3.75.75,0,0,0-.5-.7,7.72,7.72,0,0,0-1.5-.2h-.2v-.5l2.1-.1c1.4-.1,2.5-.1,3.3-.1a9.67,9.67,0,0,1,3.4.5,4.65,4.65,0,0,1,2.1,1.3,3.23,3.23,0,0,1,.8,2.1,3.1,3.1,0,0,1-1,2.4A6.09,6.09,0,0,1,83,69.5a13,13,0,0,1,3,3.2,14.75,14.75,0,0,0,2.6,3,4.89,4.89,0,0,0,2.3.8Zm-11-7.6a9.7,9.7,0,0,0,1.7-.1,7.72,7.72,0,0,0,1.5-.2,2.07,2.07,0,0,0,1-.6,3.59,3.59,0,0,0,.7-1,7.72,7.72,0,0,0,.2-1.5,5,5,0,0,0-.8-2.6c-.6-.7-1.6-.9-3.3-.9h-.9ZM92,76.7V72h.6c.6,3.1,2.1,4.6,4.4,4.6a2.72,2.72,0,0,0,2.4-.9,3.67,3.67,0,0,0,.9-2,2.34,2.34,0,0,0-.8-1.8,9.7,9.7,0,0,0-2.8-1.6A16,16,0,0,1,94,69.1a5,5,0,0,1-1.4-1.5,4.55,4.55,0,0,1-.5-2,3.54,3.54,0,0,1,1-2.6,4,4,0,0,1,2.8-1,4.67,4.67,0,0,1,1.7.3,3.15,3.15,0,0,1,1.7,1.3,2,2,0,0,0,.6-1.3h.5v3.8H100a4.31,4.31,0,0,0-1.5-2.6,3,3,0,0,0-2.4-.9,2.49,2.49,0,0,0-2,.7,3.39,3.39,0,0,0-.6,1.5,2.14,2.14,0,0,0,.8,1.7,9.7,9.7,0,0,0,2.8,1.6l2.8,1.4a3.76,3.76,0,0,1,1.4,1.4,6.46,6.46,0,0,1,.6,2.1,4,4,0,0,1-1.3,3,4.51,4.51,0,0,1-3.3,1.2,5.53,5.53,0,0,1-4-1.8c-.2.4-.4.9-.6,1.4Z"/><text class="cls-63" transform="translate(39.82 92.31)">Since 1998</text><text class="cls-64" transform="translate(18.71 100.5)">POWERED BY CARING PEOPLE</text><text class="cls-64" transform="translate(33.43 108.71)">POWERED BY SERVICE</text></svg>